<svg xmlns="http://www.w3.org/2000/svg" viewBox="0 0 350 350" fill="currentColor">
  <path d="M317.1 35.37H32.91C14.74 35.37 0 50.11 0 68.29V329.6C0 347.8 14.74 362.5 32.91 362.5H317.1C335.3 362.5 350 347.8 350 329.6V68.29C350 50.11 335.3 35.37 317.1 35.37ZM144.8 263.1H116.2V233.1H82.61L83.23 204.9L116.2 140.5H144.8V204.9H159.7V233.1H144.8V263.1ZM267.4 263.1H195.5V242.1C210.2 233.1 222.3 223.4 231.7 212.9C241.1 202.4 245.8 190.8 245.8 178C245.8 172.2 244.6 167 242.1 162.4C239.6 157.7 236.2 153.8 231.7 150.5C227.2 147.2 221.9 144.7 215.8 142.9C209.7 141 203.2 140.1 196.1 140.1H193.6V168.2C201.3 168.2 207.3 169.6 211.4 172.5C215.6 175.4 217.6 179.7 217.6 185.4C217.6 191.8 214.6 197.3 208.6 201.9C202.6 206.4 194.5 210 184.3 212.9L183 237.8H266.8V263.1H267.4ZM116.8 204.9H101.3L116.8 174.8V204.9Z" transform="translate(0 -35.37)"/>
</svg>